<svg fill="#7248b9" xmlns="http://www.w3.org/2000/svg" width="32" viewBox="0 0 100 100"><path d="M41.5 8v5H35v9h30v-9h-6.5V8zM19 17v75h62V17H69v7c0 1.047-.953 2-2 2H33c-1.047 0-2-.953-2-2v-7zm20.844 17.969c.798-.073 1.613.375 1.968 1.093.356.719.23 1.66-.312 2.25l-9 10c-.72.813-2.136.859-2.906.094l-5-5c-.769-.73-.777-2.09-.032-2.843.746-.754 2.105-.76 2.844 0l3.5 3.5 7.594-8.407c.337-.39.83-.643 1.344-.687M45.812 41q.095-.005.188 0h28c1.057-.015 2.031.943 2.031 2s-.974 2.015-2.031 2H46c-1.047.05-2.045-.859-2.094-1.906-.049-1.048.86-2.045 1.907-2.094zm-5.968 10.969c.798-.073 1.613.375 1.968 1.093.356.719.23 1.66-.312 2.25l-9 10c-.72.813-2.136.859-2.906.094l-5-5c-.769-.73-.777-2.09-.032-2.843.746-.754 2.105-.76 2.844 0l3.5 3.5 7.594-8.407c.337-.39.83-.643 1.344-.687M45.812 58q.095-.005.188 0h28c1.057-.015 2.031.943 2.031 2s-.974 2.015-2.031 2H46c-1.047.05-2.045-.859-2.094-1.906-.049-1.048.86-2.045 1.907-2.094zm-5.968 10.969c.798-.073 1.613.375 1.968 1.094.356.718.23 1.659-.312 2.25l-9 10c-.72.812-2.136.858-2.906.093l-5-5c-.769-.73-.777-2.09-.032-2.844.746-.753 2.105-.76 2.844 0l3.5 3.5 7.594-8.406c.337-.39.83-.643 1.344-.687M45.812 75q.095-.005.188 0h28c1.057-.015 2.031.943 2.031 2s-.974 2.015-2.031 2H46c-1.047.05-2.045-.859-2.094-1.906-.049-1.048.86-2.045 1.907-2.094z" color="#000" overflow="visible" style="marker:none"/></svg>